<?xml version="1.0" encoding="UTF-8" standalone="no"?>
<!DOCTYPE svg PUBLIC "-//W3C//DTD SVG 1.1//EN"
 "http://www.w3.org/Graphics/SVG/1.1/DTD/svg11.dtd">
<!-- Generated by graphviz version 2.43.0 (0)
 -->
<!-- Title: %3 Pages: 1 -->
<svg width="1776pt" height="332pt"
 viewBox="0.00 0.00 1776.18 332.00" xmlns="http://www.w3.org/2000/svg" xmlns:xlink="http://www.w3.org/1999/xlink">
<g id="graph0" class="graph" transform="scale(1 1) rotate(0) translate(4 328)">
<title>%3</title>
<polygon fill="white" stroke="transparent" points="-4,4 -4,-328 1772.18,-328 1772.18,4 -4,4"/>
<!-- [root] local_file.cat (expand) -->
<g id="node1" class="node">
<title>[root] local_file.cat (expand)</title>
<polygon fill="none" stroke="black" points="1490.7,-180 1385.7,-180 1385.7,-144 1490.7,-144 1490.7,-180"/>
<text text-anchor="middle" x="1438.2" y="-158.3" font-family="Times,serif" font-size="14.00">local_file.cat</text>
</g>
<!-- [root] provider[&quot;registry.terraform.io/hashicorp/local&quot;] -->
<g id="node3" class="node">
<title>[root] provider[&quot;registry.terraform.io/hashicorp/local&quot;]</title>
<polygon fill="none" stroke="black" points="1438.2,-108 1108.24,-90 1438.2,-72 1768.15,-90 1438.2,-108"/>
<text text-anchor="middle" x="1438.2" y="-86.3" font-family="Times,serif" font-size="14.00">provider[&quot;registry.terraform.io/hashicorp/local&quot;]</text>
</g>
<!-- [root] local_file.cat (expand)&#45;&gt;[root] provider[&quot;registry.terraform.io/hashicorp/local&quot;] -->
<g id="edge1" class="edge">
<title>[root] local_file.cat (expand)&#45;&gt;[root] provider[&quot;registry.terraform.io/hashicorp/local&quot;]</title>
<path fill="none" stroke="black" d="M1438.2,-143.7C1438.2,-135.98 1438.2,-126.71 1438.2,-118.11"/>
<polygon fill="black" stroke="black" points="1441.7,-118.1 1438.2,-108.1 1434.7,-118.1 1441.7,-118.1"/>
</g>
<!-- [root] local_file.pet (expand) -->
<g id="node2" class="node">
<title>[root] local_file.pet (expand)</title>
<polygon fill="none" stroke="black" points="1229.7,-180 1122.7,-180 1122.7,-144 1229.7,-144 1229.7,-180"/>
<text text-anchor="middle" x="1176.2" y="-158.3" font-family="Times,serif" font-size="14.00">local_file.pet</text>
</g>
<!-- [root] local_file.pet (expand)&#45;&gt;[root] provider[&quot;registry.terraform.io/hashicorp/local&quot;] -->
<g id="edge2" class="edge">
<title>[root] local_file.pet (expand)&#45;&gt;[root] provider[&quot;registry.terraform.io/hashicorp/local&quot;]</title>
<path fill="none" stroke="black" d="M1229.85,-146.67C1272.02,-135.4 1330.86,-119.68 1375.26,-107.82"/>
<polygon fill="black" stroke="black" points="1376.31,-111.16 1385.07,-105.2 1374.5,-104.4 1376.31,-111.16"/>
</g>
<!-- [root] random_pet.my&#45;pet (expand) -->
<g id="node5" class="node">
<title>[root] random_pet.my&#45;pet (expand)</title>
<polygon fill="none" stroke="black" points="892.7,-108 737.7,-108 737.7,-72 892.7,-72 892.7,-108"/>
<text text-anchor="middle" x="815.2" y="-86.3" font-family="Times,serif" font-size="14.00">random_pet.my&#45;pet</text>
</g>
<!-- [root] local_file.pet (expand)&#45;&gt;[root] random_pet.my&#45;pet (expand) -->
<g id="edge3" class="edge">
<title>[root] local_file.pet (expand)&#45;&gt;[root] random_pet.my&#45;pet (expand)</title>
<path fill="none" stroke="black" d="M1122.54,-150.6C1064.6,-139.36 971.4,-121.29 902.81,-107.99"/>
<polygon fill="black" stroke="black" points="903.36,-104.53 892.87,-106.06 902.02,-111.4 903.36,-104.53"/>
</g>
<!-- [root] var.filename -->
<g id="node6" class="node">
<title>[root] var.filename</title>
<polygon fill="none" stroke="black" points="1084.2,-108 986.2,-108 986.2,-72 1090.2,-72 1090.2,-102 1084.2,-108"/>
<polyline fill="none" stroke="black" points="1084.2,-108 1084.2,-102 "/>
<polyline fill="none" stroke="black" points="1090.2,-102 1084.2,-102 "/>
<text text-anchor="middle" x="1038.2" y="-86.3" font-family="Times,serif" font-size="14.00">var.filename</text>
</g>
<!-- [root] local_file.pet (expand)&#45;&gt;[root] var.filename -->
<g id="edge4" class="edge">
<title>[root] local_file.pet (expand)&#45;&gt;[root] var.filename</title>
<path fill="none" stroke="black" d="M1142.44,-143.88C1123.98,-134.51 1100.92,-122.81 1081.18,-112.8"/>
<polygon fill="black" stroke="black" points="1082.59,-109.59 1072.09,-108.19 1079.42,-115.83 1082.59,-109.59"/>
</g>
<!-- [root] provider[&quot;registry.terraform.io/hashicorp/random&quot;] -->
<g id="node4" class="node">
<title>[root] provider[&quot;registry.terraform.io/hashicorp/random&quot;]</title>
<polygon fill="none" stroke="black" points="350.2,-36 -0.2,-18 350.2,0 700.6,-18 350.2,-36"/>
<text text-anchor="middle" x="350.2" y="-14.3" font-family="Times,serif" font-size="14.00">provider[&quot;registry.terraform.io/hashicorp/random&quot;]</text>
</g>
<!-- [root] random_pet.my&#45;pet (expand)&#45;&gt;[root] provider[&quot;registry.terraform.io/hashicorp/random&quot;] -->
<g id="edge9" class="edge">
<title>[root] random_pet.my&#45;pet (expand)&#45;&gt;[root] provider[&quot;registry.terraform.io/hashicorp/random&quot;]</title>
<path fill="none" stroke="black" d="M737.63,-77.32C657.1,-65.2 531.05,-46.23 444.74,-33.23"/>
<polygon fill="black" stroke="black" points="445.09,-29.75 434.68,-31.72 444.05,-36.67 445.09,-29.75"/>
</g>
<!-- [root] var.length -->
<g id="node7" class="node">
<title>[root] var.length</title>
<polygon fill="none" stroke="black" points="801.7,-36 718.7,-36 718.7,0 807.7,0 807.7,-30 801.7,-36"/>
<polyline fill="none" stroke="black" points="801.7,-36 801.7,-30 "/>
<polyline fill="none" stroke="black" points="807.7,-30 801.7,-30 "/>
<text text-anchor="middle" x="763.2" y="-14.3" font-family="Times,serif" font-size="14.00">var.length</text>
</g>
<!-- [root] random_pet.my&#45;pet (expand)&#45;&gt;[root] var.length -->
<g id="edge10" class="edge">
<title>[root] random_pet.my&#45;pet (expand)&#45;&gt;[root] var.length</title>
<path fill="none" stroke="black" d="M802.34,-71.7C796.17,-63.39 788.66,-53.28 781.87,-44.14"/>
<polygon fill="black" stroke="black" points="784.68,-42.04 775.9,-36.1 779.06,-46.22 784.68,-42.04"/>
</g>
<!-- [root] var.prefix -->
<g id="node8" class="node">
<title>[root] var.prefix</title>
<polygon fill="none" stroke="black" points="904.7,-36 825.7,-36 825.7,0 910.7,0 910.7,-30 904.7,-36"/>
<polyline fill="none" stroke="black" points="904.7,-36 904.7,-30 "/>
<polyline fill="none" stroke="black" points="910.7,-30 904.7,-30 "/>
<text text-anchor="middle" x="868.2" y="-14.3" font-family="Times,serif" font-size="14.00">var.prefix</text>
</g>
<!-- [root] random_pet.my&#45;pet (expand)&#45;&gt;[root] var.prefix -->
<g id="edge11" class="edge">
<title>[root] random_pet.my&#45;pet (expand)&#45;&gt;[root] var.prefix</title>
<path fill="none" stroke="black" d="M828.3,-71.7C834.59,-63.39 842.25,-53.28 849.16,-44.14"/>
<polygon fill="black" stroke="black" points="852,-46.19 855.25,-36.1 846.42,-41.96 852,-46.19"/>
</g>
<!-- [root] var.separator -->
<g id="node9" class="node">
<title>[root] var.separator</title>
<polygon fill="none" stroke="black" points="1035.2,-36 929.2,-36 929.2,0 1041.2,0 1041.2,-30 1035.2,-36"/>
<polyline fill="none" stroke="black" points="1035.2,-36 1035.2,-30 "/>
<polyline fill="none" stroke="black" points="1041.2,-30 1035.2,-30 "/>
<text text-anchor="middle" x="985.2" y="-14.3" font-family="Times,serif" font-size="14.00">var.separator</text>
</g>
<!-- [root] random_pet.my&#45;pet (expand)&#45;&gt;[root] var.separator -->
<g id="edge12" class="edge">
<title>[root] random_pet.my&#45;pet (expand)&#45;&gt;[root] var.separator</title>
<path fill="none" stroke="black" d="M856.79,-71.88C880.23,-62.22 909.7,-50.09 934.5,-39.88"/>
<polygon fill="black" stroke="black" points="935.83,-43.11 943.75,-36.07 933.17,-36.64 935.83,-43.11"/>
</g>
<!-- [root] output.pet&#45;name (expand) -->
<g id="node10" class="node">
<title>[root] output.pet&#45;name (expand)</title>
<ellipse fill="none" stroke="black" cx="553.2" cy="-162" rx="159.77" ry="18"/>
<text text-anchor="middle" x="553.2" y="-158.3" font-family="Times,serif" font-size="14.00">[root] output.pet&#45;name (expand)</text>
</g>
<!-- [root] output.pet&#45;name (expand)&#45;&gt;[root] random_pet.my&#45;pet (expand) -->
<g id="edge5" class="edge">
<title>[root] output.pet&#45;name (expand)&#45;&gt;[root] random_pet.my&#45;pet (expand)</title>
<path fill="none" stroke="black" d="M612.32,-145.2C650.53,-135 700.54,-121.63 741.35,-110.73"/>
<polygon fill="black" stroke="black" points="742.49,-114.05 751.25,-108.09 740.68,-107.29 742.49,-114.05"/>
</g>
<!-- [root] provider[&quot;registry.terraform.io/hashicorp/local&quot;] (close) -->
<g id="node11" class="node">
<title>[root] provider[&quot;registry.terraform.io/hashicorp/local&quot;] (close)</title>
<ellipse fill="none" stroke="black" cx="1438.2" cy="-234" rx="295.95" ry="18"/>
<text text-anchor="middle" x="1438.2" y="-230.3" font-family="Times,serif" font-size="14.00">[root] provider[&quot;registry.terraform.io/hashicorp/local&quot;] (close)</text>
</g>
<!-- [root] provider[&quot;registry.terraform.io/hashicorp/local&quot;] (close)&#45;&gt;[root] local_file.cat (expand) -->
<g id="edge6" class="edge">
<title>[root] provider[&quot;registry.terraform.io/hashicorp/local&quot;] (close)&#45;&gt;[root] local_file.cat (expand)</title>
<path fill="none" stroke="black" d="M1438.2,-215.7C1438.2,-207.98 1438.2,-198.71 1438.2,-190.11"/>
<polygon fill="black" stroke="black" points="1441.7,-190.1 1438.2,-180.1 1434.7,-190.1 1441.7,-190.1"/>
</g>
<!-- [root] provider[&quot;registry.terraform.io/hashicorp/local&quot;] (close)&#45;&gt;[root] local_file.pet (expand) -->
<g id="edge7" class="edge">
<title>[root] provider[&quot;registry.terraform.io/hashicorp/local&quot;] (close)&#45;&gt;[root] local_file.pet (expand)</title>
<path fill="none" stroke="black" d="M1375.78,-216.32C1334.58,-205.32 1280.78,-190.94 1239.43,-179.89"/>
<polygon fill="black" stroke="black" points="1240.3,-176.5 1229.73,-177.3 1238.49,-183.27 1240.3,-176.5"/>
</g>
<!-- [root] provider[&quot;registry.terraform.io/hashicorp/random&quot;] (close) -->
<g id="node12" class="node">
<title>[root] provider[&quot;registry.terraform.io/hashicorp/random&quot;] (close)</title>
<ellipse fill="none" stroke="black" cx="815.2" cy="-234" rx="309.25" ry="18"/>
<text text-anchor="middle" x="815.2" y="-230.3" font-family="Times,serif" font-size="14.00">[root] provider[&quot;registry.terraform.io/hashicorp/random&quot;] (close)</text>
</g>
<!-- [root] provider[&quot;registry.terraform.io/hashicorp/random&quot;] (close)&#45;&gt;[root] random_pet.my&#45;pet (expand) -->
<g id="edge8" class="edge">
<title>[root] provider[&quot;registry.terraform.io/hashicorp/random&quot;] (close)&#45;&gt;[root] random_pet.my&#45;pet (expand)</title>
<path fill="none" stroke="black" d="M815.2,-215.87C815.2,-191.67 815.2,-147.21 815.2,-118.39"/>
<polygon fill="black" stroke="black" points="818.7,-118.19 815.2,-108.19 811.7,-118.19 818.7,-118.19"/>
</g>
<!-- [root] root -->
<g id="node13" class="node">
<title>[root] root</title>
<ellipse fill="none" stroke="black" cx="815.2" cy="-306" rx="58.49" ry="18"/>
<text text-anchor="middle" x="815.2" y="-302.3" font-family="Times,serif" font-size="14.00">[root] root</text>
</g>
<!-- [root] root&#45;&gt;[root] output.pet&#45;name (expand) -->
<g id="edge13" class="edge">
<title>[root] root&#45;&gt;[root] output.pet&#45;name (expand)</title>
<path fill="none" stroke="black" d="M757.06,-303.95C674.55,-301.08 529.85,-290.54 497.2,-252 479.86,-231.53 500.88,-205.23 521.93,-186.55"/>
<polygon fill="black" stroke="black" points="524.26,-189.17 529.62,-180.03 519.73,-183.83 524.26,-189.17"/>
</g>
<!-- [root] root&#45;&gt;[root] provider[&quot;registry.terraform.io/hashicorp/local&quot;] (close) -->
<g id="edge14" class="edge">
<title>[root] root&#45;&gt;[root] provider[&quot;registry.terraform.io/hashicorp/local&quot;] (close)</title>
<path fill="none" stroke="black" d="M869.13,-298.94C962.78,-288.42 1158.43,-266.44 1293.98,-251.2"/>
<polygon fill="black" stroke="black" points="1294.5,-254.67 1304.05,-250.07 1293.72,-247.71 1294.5,-254.67"/>
</g>
<!-- [root] root&#45;&gt;[root] provider[&quot;registry.terraform.io/hashicorp/random&quot;] (close) -->
<g id="edge15" class="edge">
<title>[root] root&#45;&gt;[root] provider[&quot;registry.terraform.io/hashicorp/random&quot;] (close)</title>
<path fill="none" stroke="black" d="M815.2,-287.7C815.2,-279.98 815.2,-270.71 815.2,-262.11"/>
<polygon fill="black" stroke="black" points="818.7,-262.1 815.2,-252.1 811.7,-262.1 818.7,-262.1"/>
</g>
</g>
</svg>
